<svg width="12" height="18" viewBox="0 0 12 18" fill="none" xmlns="http://www.w3.org/2000/svg">
<path fill-rule="evenodd" clip-rule="evenodd" d="M3.71861 16.9268C2.28465 16.2034 -0.453747 13.9407 0.0643278 10.6769C0.354331 8.84991 0.857688 8.09348 1.25038 7.50336C1.7346 6.7757 2.05056 6.30089 1.5908 4.38362C3.29305 4.07112 3.90363 5.55547 3.99615 6.33671C4.82877 5.56993 6.24422 3.22911 5.24508 0C8.29802 1.86628 8.80684 6.33669 8.71433 8.15957C9.50069 6.55369 10.102 6.42349 10.7496 6.33671C10.5492 6.78519 10.3703 7.94256 11.2584 8.9842C12.3494 10.2637 12.8149 14.938 8.44147 16.8293C9.94556 14.5165 8.80284 12.7725 8.01663 12.1759C7.97739 12.4959 7.63207 13.3869 6.56471 14.3912C5.43456 13.4755 5.38747 11.4744 5.50519 10.5882C4.64204 11.179 2.93621 12.582 3.73935 15.7943C3.83297 16.1687 4.08374 16.7009 4.44685 17.183L3.71861 16.9268Z" fill="url(#paint0_linear)"/>
<defs>
<linearGradient id="paint0_linear" x1="6" y1="0" x2="6" y2="17.183" gradientUnits="userSpaceOnUse">
<stop stop-color="#FFCB65"/>
<stop offset="1" stop-color="#FF7B43"/>
</linearGradient>
</defs>
</svg>
