<svg width="120" height="120" viewBox="0 0 120 120" fill="none" xmlns="http://www.w3.org/2000/svg">
<path fill-rule="evenodd" clip-rule="evenodd" d="M47.125 32C43.19 32 40 35.2236 40 39.2V96.8C40 100.776 43.19 104 47.125 104H89.875C93.81 104 97 100.776 97 96.8V50.0604L79.1875 32H47.125ZM50.6875 63.2C50.6875 61.2118 52.2825 59.6 54.25 59.6H82.75C84.7175 59.6 86.3125 61.2118 86.3125 63.2C86.3125 65.1882 84.7175 66.8 82.75 66.8H54.25C52.2825 66.8 50.6875 65.1882 50.6875 63.2ZM54.25 74C52.2825 74 50.6875 75.6118 50.6875 77.6C50.6875 79.5882 52.2825 81.2 54.25 81.2H68.5C70.4675 81.2 72.0625 79.5882 72.0625 77.6C72.0625 75.6118 70.4675 74 68.5 74H54.25Z" fill="#252732"/>
<path fill-rule="evenodd" clip-rule="evenodd" d="M33.5 48C29.0817 48 25.5 51.5817 25.5 56V110C25.5 114.418 29.0817 118 33.5 118H70.5C74.9183 118 78.5 114.418 78.5 110V104H47.125C43.19 104 40 100.776 40 96.8V48H33.5Z" fill="#464855"/>
<path fill-rule="evenodd" clip-rule="evenodd" d="M78.5 104V56C78.5 51.5817 74.9183 48 70.5 48H40V96.8C40 100.776 43.19 104 47.125 104H78.5Z" fill="url(#paint0_linear_1170_6594)"/>
<defs>
<linearGradient id="paint0_linear_1170_6594" x1="59" y1="48" x2="59" y2="104" gradientUnits="userSpaceOnUse">
<stop stop-color="#464855" stop-opacity="0.8"/>
<stop offset="1" stop-color="#464855" stop-opacity="0.4"/>
</linearGradient>
</defs>
</svg>
